<svg width="158" height="185" viewBox="0 0 158 185" fill="none" xmlns="http://www.w3.org/2000/svg">
<path d="M36.6453 183.4L2.54562 105.171C2.25769 104.511 2.74176 103.771 3.46233 103.771H153.311C154.035 103.771 154.519 104.516 154.225 105.178L119.457 183.406C119.296 183.767 118.938 184 118.543 184H37.562C37.1642 184 36.8042 183.764 36.6453 183.4Z" stroke="#FFA181" stroke-width="2" stroke-linecap="square"/>
<path d="M115.535 63.0857C115.535 41.6255 98.5954 27.8857 77.1352 27.8857C55.675 27.8857 39.1924 41.6255 39.1924 63.0857" stroke="#FFA181" stroke-width="2"/>
<path d="M2.39238 103.771C-1.26475 74.7429 31.1926 53.2571 54.9639 67.6571" stroke="#FFA181" stroke-width="2"/>
<path d="M154.406 103.931C158.063 74.9022 129.478 53.0286 102.736 67.6571" stroke="#FFA181" stroke-width="2"/>
<path d="M85.6347 19.212L85.8508 19.558L86.2472 19.6541C90.6373 20.7192 93.3622 22.0053 94.8051 23.8422C96.1951 25.6117 96.5676 28.1334 95.5858 32.1804C93.7116 39.906 85.5447 44.6599 77.2268 42.6909C72.9276 40.7259 69.8019 38.3276 67.8578 35.4264C65.9231 32.5392 65.1001 29.0672 65.558 24.8307C66.524 20.9446 69.8144 16.5553 73.7357 14.6598C75.6781 13.721 77.7173 13.4197 79.6946 14.0203C81.6732 14.6214 83.7354 16.17 85.6347 19.212Z" fill="#FFA181" stroke="#FFA181" stroke-width="2"/>
<path d="M86.2072 18.8506L89.6074 13.5602C89.6074 13.5602 91.5113 10.6244 93.2364 9.2662C94.5762 8.21124 95.4637 7.76735 97.0467 7.13297C98.013 6.74573 98.319 6.73601 98.319 6.73601" stroke="#FFA181" stroke-width="2" stroke-linecap="square"/>
<path d="M23.4214 112L50.85 173.257" stroke="#FFA181" stroke-width="2" stroke-linecap="square"/>
<path d="M129.935 112L102.507 173.257" stroke="#FFA181" stroke-width="2" stroke-linecap="square"/>
<path d="M47.4214 112L67.9928 173.257" stroke="#FFA181" stroke-width="2" stroke-linecap="square"/>
<path d="M108.45 112L87.8783 173.257" stroke="#FFA181" stroke-width="2" stroke-linecap="square"/>
<path d="M78.2783 115.657V173.257" stroke="#FFA181" stroke-width="2" stroke-linecap="square"/>
</svg>
