<svg width="720" height="672" viewBox="0 0 720 672" fill="none" xmlns="http://www.w3.org/2000/svg">
<path d="M96.6585 317L90.6585 338L92.1582 346.5C92.1582 346.5 51.034 347.126 39.6585 354.5C27.2523 362.542 21.558 371.503 18.6585 386C17.165 393.467 18.6585 405.5 18.6585 405.5L7.15849 420C7.15849 420 -0.157885 439.661 1.15849 452.5C2.00927 460.798 7.15849 473 7.15849 473C7.15849 473 12.6014 494.065 18.6585 506.5C23.6888 516.827 34.1585 531.5 34.1585 531.5C34.1585 531.5 38.7568 560.348 39.6585 579C40.309 592.457 36.9919 600.293 39.6585 613.5C43.7762 633.894 57.3862 640.91 65.6585 660C75.9284 683.7 84.1585 723.5 84.1585 723.5C84.1585 723.5 77.3593 737.346 73.6585 746.5C-4.21113 939.114 659.295 947.216 605.659 746.5C602.582 734.987 596.159 717.5 596.159 717.5L605.659 653.5C605.659 653.5 617.883 633.682 623.659 620C629.471 606.232 630.376 597.659 635.159 583.5C641.148 565.767 649.04 557.034 651.659 538.5C653.407 526.126 651.659 506.5 651.659 506.5L672.159 478.5C672.159 478.5 699.055 462.494 708.659 446C714.098 436.658 718.159 420 718.159 420C718.159 420 722.776 399.612 718.159 388C715.657 381.709 708.659 373.5 708.659 373.5C708.659 373.5 718.646 362.781 718.159 354.5C717.722 347.078 708.659 338 708.659 338L686.659 317C686.659 317 678.494 309.223 672.159 306C662.908 301.294 656.194 303.146 646.159 300.5C637.26 298.154 607.658 302 607.658 302C607.658 302 615.658 291 612.158 275.5C608.658 260 607.658 257 601.658 249L587.658 228.5C587.658 228.5 581.028 218.783 576.158 213.5C566.322 202.828 552.159 186.5 552.159 186.5L556.159 150C556.159 150 562.734 128.023 564.159 113.5C565.341 101.452 564.159 82.5 564.159 82.5V60.5C564.159 46.6364 562.807 35.372 557.658 22.5C554.658 15 545.158 2 545.158 2L522.659 14C522.659 14 508.158 25.5 500.158 37C494.516 45.1102 493.705 51.487 489.658 60.5C483.249 74.7788 467.658 94 467.658 94L456.158 113.5C456.158 113.5 444.064 105.157 435.658 101C421.155 93.8279 396.158 88.5 396.158 88.5C396.158 88.5 370.105 83.0409 353.158 82.5C331.175 81.7984 297.158 88.5 297.158 88.5L257.658 101L219.158 113.5L210.158 101L195.158 82.5C195.158 82.5 182.837 56.4714 171.658 42C162.373 29.9785 156.658 23.5 144.658 14C138.841 9.39438 123.658 3.5 123.658 3.5C123.658 3.5 116.721 17.7706 115.158 23.5C110.658 40 115.158 49.9885 115.158 66V101C115.158 101 113.893 123.302 115.158 137.5C116.896 156.993 125.658 186.5 125.658 186.5V209C125.658 209 110.629 225.001 105.158 240.5C99.1579 257.5 98.1582 268 98.1582 287C98.1582 301.142 96.6585 317 96.6585 317Z" fill="white" stroke="#FFA181" stroke-width="2"/>
<path d="M565.658 385.5C562.724 389.573 563.158 396.5 563.158 396.5C563.158 396.5 562.995 404.486 564.193 406.5C564.973 407.811 565.863 409.194 567.158 410C572.131 413.095 582.158 410 582.158 410L587.282 409.649L587.158 410C587.158 410 587.876 415.565 590.158 418C592.368 420.358 592.643 420.547 596.158 422.5C599.672 424.453 603.143 424.547 606.658 426.5H613.658V434.5C613.658 434.5 614.156 437.412 614.658 439.5C616.028 445.196 628.158 446 628.158 446C628.158 446 632.447 446.513 635.658 444C639.578 440.932 641.158 432.5 641.158 432.5V421L635.658 410V401.5C635.658 401.5 638.175 397.075 638.658 394.5C639.444 390.308 635.658 382 635.658 382C635.658 382 632.235 377.685 628.158 375C624.282 372.447 621.293 372.237 616.658 372C610.883 371.704 607.546 372.902 602.158 375C597.102 376.968 590.158 382 590.158 382H582.158C582.158 382 569.437 380.255 565.658 385.5Z" fill="#FFE0D4"/>
<path d="M613.658 426.5V434.5C613.658 434.5 614.156 437.412 614.658 439.5C616.028 445.196 628.158 446 628.158 446C628.158 446 632.447 446.513 635.658 444C639.578 440.932 641.158 432.5 641.158 432.5V421L635.658 410V401.5C635.658 401.5 638.175 397.075 638.658 394.5C639.444 390.308 635.658 382 635.658 382C635.658 382 632.235 377.685 628.158 375C624.282 372.447 621.293 372.237 616.658 372C610.883 371.704 607.546 372.902 602.158 375C597.102 376.968 590.158 382 590.158 382H582.158C582.158 382 569.437 380.255 565.658 385.5C562.724 389.573 563.158 396.5 563.158 396.5C563.158 396.5 562.995 404.486 564.193 406.5C564.973 407.811 565.863 409.194 567.158 410C572.131 413.095 582.158 410 582.158 410L587.282 409.649M613.658 426.5L622.658 419.5M613.658 426.5H606.658C603.143 424.547 599.672 424.453 596.158 422.5C592.643 420.547 592.368 420.358 590.158 418C587.876 415.565 587.158 410 587.158 410L587.282 409.649M590.158 401.5L587.282 409.649" stroke="#FFE0D4" stroke-width="2"/>
<path d="M278.157 304.5C278.157 304.5 268.354 302.452 262.657 304.5C255.77 306.976 252.536 312.01 249.158 317.5C246.427 321.938 244.158 329.5 244.158 329.5C244.158 329.5 243.239 344.42 246.158 352.5C248.533 359.076 258.657 367 258.657 367C258.657 367 274.411 373.475 286.158 373C298.379 372.506 307.592 373.124 317.157 365.5C321.811 361.791 329.657 354 329.657 354L346.657 333L356.158 321C356.158 321 363.158 327 369.158 333C375.341 339.183 385.158 348.5 385.158 348.5C385.158 348.5 397.546 358.479 405.158 363C413.335 367.856 430.158 370 430.158 370C430.158 370 452.616 371.067 466.158 364C476.074 358.826 484.906 354.341 487.658 343.5C488.955 338.39 489.658 330.5 489.658 330.5L485.158 311.5C485.158 311.5 477.851 301.971 471.658 297.5C466.351 293.668 453.158 296 453.158 296L438.658 303.5" stroke="#FFA181" stroke-width="2"/>
<path d="M350.158 319C351.81 321.925 357.158 321.5 357.158 321.5C357.158 321.5 360.536 321.375 361.658 319C363.326 315.469 365.158 311 365.158 311L369.158 297.5L377.158 290L385.158 282C385.158 282 388.661 277.614 388.158 274.5C387.796 272.252 385.158 267.5 385.158 267.5C385.158 267.5 380.704 258.957 374.658 256.5C369.955 254.588 363.158 256.5 363.158 256.5L356.158 262L349.158 256.5C349.158 256.5 337.158 253 332.658 255.5C329.223 257.408 324.658 267.5 324.658 267.5C324.658 267.5 321.094 277.684 323.658 282C325.403 284.936 330.158 287.5 330.158 287.5L336.158 291.5C336.158 291.5 339.158 294 342.158 297.5C345.797 301.745 347.158 312 347.158 312C347.158 312 348.238 315.599 350.158 319Z" fill="#FFE0D4" stroke="#FFE0D4" stroke-width="2"/>
<path d="M243.658 223C243.658 223 253.386 221 258.658 221C265.658 221 275.658 223.5 275.658 223.5C275.658 223.5 287.89 227.907 292.158 231.085C296.916 234.629 299.302 238.129 300.158 244C300.468 246.125 300.158 250 300.158 250" stroke="#FFA181" stroke-width="2"/>
<path d="M408.158 249.844C408.158 249.844 409.141 238.984 413.158 234.844C417.604 230.262 428.158 225.344 428.158 225.344C435.158 221.844 439.543 220.796 447.158 218.844C447.158 218.844 457.658 217.344 464.658 218.344C473.743 219.642 485.158 225.344 485.158 225.344" stroke="#FFA181" stroke-width="2"/>
<path d="M465.158 531.5C465.158 531.5 474.158 518.5 481.658 504.5C486.176 496.066 489.158 480 489.158 480L496.658 445L499.658 418C499.658 418 503.2 402.153 508.658 392C514.282 381.538 524.158 367.5 524.158 367.5C524.158 367.5 533.134 358.426 538.158 352C545.936 342.054 546.034 333.227 555.158 324.5C563.072 316.931 579.158 310 579.158 310L602.658 306L608.658 301.5" stroke="#FFA181" stroke-width="2"/>
<path d="M73.6582 347.5L94.7245 347L117.297 351.042L139.369 357.609C139.369 357.609 151.859 360.225 158.43 364.682C166.414 370.099 173.98 383.88 173.98 383.88L188.026 396.51L202.572 421.266C202.572 421.266 214.687 427.173 217.621 434.401C220.07 440.434 217.621 451.073 217.621 451.073C217.621 451.073 222.897 464.341 224.142 473.302C225.31 481.705 226.009 486.75 224.142 495.026C222.684 501.489 217.621 510.688 217.621 510.688C217.621 510.688 216.346 519.156 217.621 524.328C219.516 532.016 229.158 541 229.158 541" stroke="#FFA181" stroke-width="2"/>
<path d="M73.1766 489.465C76.2673 487.413 79.5092 487 79.5092 487C79.5092 487 79.7729 484.19 79.5092 480.927C79.2455 477.665 79.5092 472.5 79.5092 472.5C79.5092 472.5 80.5283 469.089 80.873 466.771C81.6053 461.847 84.2243 459.028 88.5799 456.617C93.0218 454.159 93.0972 453.409 98.1575 453C103.023 452.606 109.658 453 109.658 453C109.658 453 115.21 454.378 115.991 454.401C120.838 454.549 124.73 463.226 124.73 463.226L132.946 465.572C132.946 465.572 138.136 466.945 141.658 469C147.548 472.438 151.421 483.14 151.421 483.14C151.421 483.14 152.461 487.719 152.026 490.616C151.493 494.16 150.928 496.645 148.185 498.952C144.449 502.094 140.519 500.883 135.726 499.959C132.296 499.299 127.429 496.617 127.429 496.617L125.421 495C125.421 495 126.522 500.731 125.421 502.799C124.312 504.882 115.991 507.265 115.991 507.265C115.991 507.265 109.219 508.827 106.158 507.311C103.097 505.796 104.263 504.315 101.202 502.799L101.202 507.265L96.2838 514.685L88.8738 522.307C88.8738 522.307 80.3739 525.784 75.9161 523.355C72.9663 521.747 71.6972 519.866 70.3683 516.78C68.9008 513.373 68.1578 507 68.1578 507L68.7971 497.344C68.7971 497.344 70.2439 491.412 73.1766 489.465Z" fill="#FFE0D4" stroke="#FFE0D4" stroke-width="2"/>
<ellipse cx="65.1583" cy="419" rx="13" ry="21" transform="rotate(-7.07753 65.1583 419)" fill="#FFE0D4"/>
<ellipse cx="115.158" cy="405" rx="13" ry="21" fill="#FFE0D4"/>
<ellipse cx="169.658" cy="428.5" rx="8.5" ry="13.5" transform="rotate(14.4884 169.658 428.5)" fill="#FFE0D4"/>
<ellipse cx="686.528" cy="408.707" rx="8.5" ry="13.5" transform="rotate(42.2654 686.528 408.707)" fill="#FFE0D4"/>
<ellipse cx="582.098" cy="343.817" rx="11.3571" ry="18.0377" transform="rotate(18.857 582.098 343.817)" fill="#FFE0D4"/>
<ellipse cx="638.323" cy="333.341" rx="10.935" ry="17.3673" transform="rotate(24.5629 638.323 333.341)" fill="#FFE0D4"/>
<ellipse cx="674.323" cy="351.341" rx="10.935" ry="17.3673" transform="rotate(33.6006 674.323 351.341)" fill="#FFE0D4"/>
<ellipse cx="35.6586" cy="462.5" rx="8.5" ry="13.5" transform="rotate(-22.082 35.6586 462.5)" fill="#FFE0D4"/>
</svg>
