<svg width="477" height="447" viewBox="0 0 477 447" fill="none" xmlns="http://www.w3.org/2000/svg">
<path d="M80.7135 311.325C73.1871 317.91 73.0267 334.386 76.8701 347.838C80.7134 361.29 92.0539 378.396 101.853 388.195C113.383 399.726 144.131 409.334 144.131 409.334C172.659 415.476 199.862 401.647 232.532 403.569C265.202 405.491 283.705 432.464 336.307 403.569C359.325 390.925 373.644 377.042 383.177 352.741C391.323 331.979 399.041 322.587 388.446 302.992C377.552 282.84 342.547 291.97 324.275 278.02C315.883 271.614 310.316 268.366 302.452 260.013C294.587 251.659 283.603 232.067 272.733 218.305C261.864 204.543 232.124 203.045 215.504 205.477C198.885 207.908 175.208 237.852 162.735 253.402C150.747 268.347 156.044 269.593 140.288 280.577C128.234 288.98 114.152 288.264 101.853 295.951C86.4788 305.559 96.0876 297.872 80.7135 311.325Z" fill="#FFF6F2"/>
<ellipse cx="48.9492" cy="71.6308" rx="48.9492" ry="71.6308" transform="matrix(-0.968982 -0.24713 -0.24713 0.968982 476.183 151.03)" fill="#FFF6F2"/>
<ellipse cx="62.8312" cy="219.285" rx="46.5737" ry="71.6308" transform="rotate(-14.3077 62.8312 219.285)" fill="#FFF6F2"/>
<ellipse cx="58.9505" cy="88.4008" rx="58.9505" ry="88.4008" transform="matrix(-0.998434 -0.0559489 -0.0559489 0.998434 362.063 6.59644)" fill="#FFF6F2"/>
<ellipse cx="156.048" cy="99.2476" rx="58.9505" ry="88.4008" transform="rotate(-3.20731 156.048 99.2476)" fill="#FFF6F2"/>
</svg>
