<svg width="124" height="117" viewBox="0 0 124 117" fill="none" xmlns="http://www.w3.org/2000/svg">
<path d="M21 80.9999C19.0418 82.7133 19.0001 86.9999 20 90.4999C21 93.9999 23.9505 98.4504 26.5 101C29.5 104 37.5 106.5 37.5 106.5C44.9224 108.098 52 104.5 60.5 105C69 105.5 73.8142 112.518 87.5 105C93.4888 101.71 97.2143 98.0982 99.6946 91.7756C101.814 86.3736 103.822 83.9302 101.066 78.8318C98.2309 73.5888 89.1236 75.9641 84.3694 72.3348C82.186 70.668 80.7377 69.8229 78.6915 67.6496C76.6453 65.4763 73.7875 60.3787 70.9595 56.7982C68.1315 53.2176 60.3937 52.8279 56.0697 53.4605C51.7458 54.093 45.5854 61.8838 42.3401 65.9298C39.2213 69.8179 40.5993 70.1423 36.5 72.9999C33.3638 75.1861 29.7 74.9999 26.5 76.9999C22.5 79.4999 25 77.4999 21 80.9999Z" fill="#FFA181" fill-opacity="0.5"/>
<ellipse cx="12.7355" cy="18.6368" rx="12.7355" ry="18.6368" transform="matrix(-0.968982 -0.24713 -0.24713 0.968982 123.893 39.2947)" fill="#FFA181" fill-opacity="0.5"/>
<ellipse cx="16.3473" cy="57.0534" rx="12.1175" ry="18.6368" transform="rotate(-14.3077 16.3473 57.0534)" fill="#FFA181" fill-opacity="0.5"/>
<ellipse cx="15.3376" cy="23" rx="15.3376" ry="23" transform="matrix(-0.998434 -0.0559489 -0.0559489 0.998434 94.2012 1.71631)" fill="#FFA181" fill-opacity="0.5"/>
<ellipse cx="40.6004" cy="25.8222" rx="15.3376" ry="23" transform="rotate(-3.20731 40.6004 25.8222)" fill="#FFA181" fill-opacity="0.5"/>
</svg>
