<svg width="727" height="569" viewBox="0 0 727 569" fill="none" xmlns="http://www.w3.org/2000/svg">
<g clip-path="url(#clip0_457_2762)">
<path d="M133.719 330.274L138.537 349.56L139.851 357.012C139.851 357.012 103.828 357.561 93.8633 364.025C82.996 371.075 78.008 378.931 75.4681 391.64C74.1599 398.187 75.4681 408.735 75.4681 408.735L65.3946 421.447C65.3946 421.447 58.9857 438.683 60.1388 449.939C60.8841 457.213 65.3946 467.91 65.3946 467.91C65.3946 467.91 70.1624 486.377 75.4681 497.279C79.8745 506.332 89.0455 519.195 89.0455 519.195C89.0455 519.195 93.0735 544.486 93.8633 560.837C94.4331 572.635 91.5275 579.504 93.8633 591.082C97.4703 608.961 109.392 615.112 116.638 631.847C125.634 652.624 132.844 687.516 132.844 687.516C132.844 687.516 126.888 699.654 123.646 707.679C55.4353 876.537 636.64 883.64 589.657 707.679C586.962 697.586 581.335 682.256 581.335 682.256L589.657 626.149C589.657 626.149 600.365 608.775 605.424 596.781C610.515 584.71 611.308 577.195 615.498 564.782C620.745 549.236 627.657 541.58 629.951 525.332C631.482 514.484 629.951 497.279 629.951 497.279L647.908 472.732C647.908 472.732 671.468 458.7 679.881 444.24C684.645 436.051 688.202 421.447 688.202 421.447C688.202 421.447 692.247 403.574 688.202 393.394C686.011 387.879 679.881 380.682 679.881 380.682C679.881 380.682 688.629 371.285 688.202 364.025C687.82 357.518 679.881 349.56 679.881 349.56L660.61 331.15C660.61 331.15 653.457 324.332 647.908 321.507C639.805 317.382 633.924 319.005 625.133 316.685C617.339 314.628 591.408 318 591.408 318C591.408 318 598.416 308.357 595.35 294.769C592.284 281.18 591.408 278.55 586.153 271.537L573.889 253.565C573.889 253.565 568.081 245.047 563.816 240.415C555.199 231.059 542.793 216.745 542.793 216.745L546.297 184.747C546.297 184.747 552.056 165.48 553.304 152.748C554.34 142.186 553.304 125.572 553.304 125.572V106.285C553.304 94.1313 552.121 84.2562 547.61 72.9717C544.983 66.3967 536.661 55 536.661 55L516.952 65.52C516.952 65.52 504.25 75.6017 497.243 85.6834C492.301 92.7933 491.59 98.3836 488.045 106.285C482.431 118.803 468.774 135.653 468.774 135.653L458.701 152.748C458.701 152.748 448.106 145.434 440.744 141.79C428.039 135.503 406.143 130.832 406.143 130.832C406.143 130.832 383.321 126.046 368.477 125.572C349.22 124.957 319.423 130.832 319.423 130.832L284.823 141.79L251.098 152.748L243.215 141.79L230.075 125.572C230.075 125.572 219.282 102.753 209.49 90.0667C201.356 79.5278 196.35 73.8484 185.839 65.52C180.743 61.4824 167.444 56.315 167.444 56.315C167.444 56.315 161.367 68.8256 159.998 73.8484C156.056 88.3134 159.998 97.07 159.998 111.107V141.79C159.998 141.79 158.89 161.342 159.998 173.788C161.52 190.877 169.196 216.745 169.196 216.745V236.47C169.196 236.47 154.743 250.935 145.983 262.77C136.583 275.47 130.654 284.249 130.654 300.905C130.654 313.303 133.719 330.274 133.719 330.274Z" fill="white" stroke="#FFA181" stroke-width="2"/>
<path d="M554.231 390.883C551.636 394.457 552.02 400.534 552.02 400.534C552.02 400.534 551.876 407.541 552.935 409.307C553.625 410.457 554.412 411.671 555.557 412.378C559.955 415.094 568.823 412.378 568.823 412.378L573.354 412.07L573.244 412.378C573.244 412.378 573.88 417.261 575.897 419.397C577.852 421.466 578.095 421.632 581.203 423.345C584.312 425.058 587.381 425.141 590.489 426.854H596.68V433.873C596.68 433.873 597.12 436.427 597.565 438.259C598.776 443.256 609.503 443.962 609.503 443.962C609.503 443.962 613.297 444.412 616.136 442.208C619.603 439.516 621 432.118 621 432.118V422.029L616.136 412.378V404.921C616.136 404.921 618.362 401.038 618.789 398.779C619.484 395.102 616.136 387.812 616.136 387.812C616.136 387.812 613.109 384.027 609.503 381.671C606.075 379.431 603.432 379.247 599.333 379.039C594.226 378.78 591.275 379.831 586.51 381.671C582.039 383.398 575.897 387.812 575.897 387.812H568.823C568.823 387.812 557.572 386.281 554.231 390.883Z" fill="#FFE0D4"/>
<path d="M596.68 426.854V433.873C596.68 433.873 597.12 436.427 597.565 438.259C598.776 443.256 609.503 443.962 609.503 443.962C609.503 443.962 613.297 444.412 616.136 442.208C619.603 439.516 621 432.118 621 432.118V422.029L616.136 412.378V404.921C616.136 404.921 618.362 401.038 618.789 398.779C619.484 395.102 616.136 387.812 616.136 387.812C616.136 387.812 613.109 384.027 609.503 381.671C606.075 379.431 603.432 379.247 599.333 379.039C594.226 378.78 591.275 379.831 586.51 381.671C582.039 383.398 575.897 387.812 575.897 387.812H568.823C568.823 387.812 557.572 386.281 554.231 390.883C551.636 394.457 552.02 400.534 552.02 400.534C552.02 400.534 551.876 407.541 552.935 409.307C553.625 410.457 554.412 411.671 555.557 412.378C559.955 415.094 568.823 412.378 568.823 412.378L573.354 412.07M596.68 426.854L604.639 420.713M596.68 426.854H590.489C587.381 425.141 584.312 425.058 581.203 423.345C578.095 421.632 577.852 421.466 575.897 419.397C573.88 417.261 573.244 412.378 573.244 412.378L573.354 412.07M575.897 404.921L573.354 412.07" stroke="#FFE0D4" stroke-width="2"/>
<path d="M302.879 320.051C302.879 320.051 294.298 318.259 289.312 320.051C283.284 322.217 280.454 326.621 277.496 331.424C275.106 335.306 273.12 341.922 273.12 341.922C273.12 341.922 272.316 354.975 274.871 362.044C276.95 367.796 285.811 374.729 285.811 374.729C285.811 374.729 299.6 380.394 309.882 379.978C320.579 379.546 328.643 380.086 337.015 373.417C341.088 370.172 347.956 363.356 347.956 363.356L362.835 344.984L371.151 334.486C371.151 334.486 377.278 339.735 382.53 344.984C387.941 350.393 396.534 358.544 396.534 358.544C396.534 358.544 407.377 367.275 414.04 371.23C421.197 375.478 435.922 377.354 435.922 377.354C435.922 377.354 455.578 378.287 467.431 372.105C476.11 367.578 483.841 363.654 486.25 354.17C487.385 349.7 488 342.797 488 342.797L484.062 326.175C484.062 326.175 477.666 317.838 472.245 313.927C467.6 310.575 456.053 312.615 456.053 312.615L443.361 319.176" stroke="#FFA181" stroke-width="2"/>
<path d="M365.877 332.777C367.314 335.356 371.971 334.981 371.971 334.981C371.971 334.981 374.911 334.871 375.888 332.777C377.34 329.664 378.935 325.724 378.935 325.724L382.417 313.822L389.381 307.21L396.345 300.157C396.345 300.157 399.394 296.29 398.957 293.545C398.641 291.563 396.345 287.373 396.345 287.373C396.345 287.373 392.468 279.842 387.205 277.675C383.111 275.99 377.194 277.675 377.194 277.675L371.1 282.524L365.006 277.675C365.006 277.675 354.56 274.59 350.642 276.794C347.652 278.476 343.678 287.373 343.678 287.373C343.678 287.373 340.576 296.352 342.808 300.157C344.326 302.746 348.466 305.006 348.466 305.006L353.689 308.532C353.689 308.532 356.301 310.736 358.913 313.822C362.08 317.565 363.265 326.606 363.265 326.606C363.265 326.606 364.206 329.779 365.877 332.777Z" fill="#FFE0D4" stroke="#FFE0D4" stroke-width="2"/>
<path d="M272 248.724C272 248.724 280.588 247 285.242 247C291.422 247 300.25 249.155 300.25 249.155C300.25 249.155 311.048 252.954 314.816 255.694C319.016 258.749 321.123 261.767 321.878 266.828C322.152 268.66 321.878 272 321.878 272" stroke="#FFA181" stroke-width="2"/>
<path d="M417 272C417 272 417.855 262.451 421.351 258.811C425.219 254.782 434.403 250.457 434.403 250.457C440.494 247.38 444.309 246.459 450.935 244.742C450.935 244.742 460.071 243.423 466.162 244.302C474.068 245.444 484 250.457 484 250.457" stroke="#FFA181" stroke-width="2"/>
<path d="M467 519C467 519 474.84 507.583 481.373 495.287C485.308 487.88 487.906 473.77 487.906 473.77L494.439 443.03L497.052 419.317C497.052 419.317 500.138 405.4 504.892 396.483C509.791 387.295 518.394 374.965 518.394 374.965C518.394 374.965 526.212 366.995 530.589 361.352C537.364 352.617 537.449 344.865 545.397 337.2C552.29 330.553 566.303 324.465 566.303 324.465L586.774 320.952L592 317" stroke="#FFA181" stroke-width="2"/>
<path d="M124 357.438L142.425 357L162.167 360.542L181.47 366.297C181.47 366.297 192.395 368.589 198.141 372.495C205.124 377.241 211.741 389.318 211.741 389.318L224.025 400.385L236.748 422.078C236.748 422.078 247.343 427.255 249.91 433.589C252.052 438.875 249.91 448.198 249.91 448.198C249.91 448.198 254.524 459.825 255.613 467.677C256.634 475.041 257.246 479.462 255.613 486.714C254.338 492.377 249.91 500.437 249.91 500.437C249.91 500.437 248.795 507.858 249.91 512.391C251.567 519.127 260 527 260 527" stroke="#FFA181" stroke-width="2"/>
<path d="M123.082 482.108C125.79 480.31 128.63 479.947 128.63 479.947C128.63 479.947 128.861 477.485 128.63 474.627C128.399 471.768 128.63 467.243 128.63 467.243C128.63 467.243 129.523 464.254 129.825 462.224C130.467 457.909 132.762 455.439 136.578 453.327C140.47 451.173 140.536 450.516 144.97 450.157C149.233 449.813 155.046 450.157 155.046 450.157C155.046 450.157 159.911 451.364 160.595 451.385C164.842 451.515 168.252 459.117 168.252 459.117L175.45 461.172C175.45 461.172 179.998 462.375 183.084 464.176C188.245 467.188 191.638 476.566 191.638 476.566C191.638 476.566 192.549 480.578 192.168 483.116C191.701 486.221 191.206 488.398 188.803 490.42C185.529 493.173 182.086 492.111 177.886 491.302C174.881 490.724 170.617 488.374 170.617 488.374L168.857 486.957C168.857 486.957 169.822 491.978 168.857 493.79C167.886 495.615 160.595 497.703 160.595 497.703C160.595 497.703 154.661 499.072 151.979 497.744C149.297 496.416 150.319 495.118 147.637 493.79L147.637 497.703L143.328 504.205L136.835 510.883C136.835 510.883 129.388 513.929 125.482 511.801C122.898 510.392 121.786 508.744 120.621 506.04C119.335 503.055 118.684 497.471 118.684 497.471L119.245 489.01C119.245 489.01 120.512 483.814 123.082 482.108Z" fill="#FFE0D4" stroke="#FFE0D4" stroke-width="2"/>
<ellipse cx="116.056" cy="420.367" rx="11.3903" ry="18.3998" transform="rotate(-7.07753 116.056 420.367)" fill="#FFE0D4"/>
<ellipse cx="159.5" cy="408.5" rx="11.5" ry="18.5" fill="#FFE0D4"/>
<ellipse cx="207.617" cy="428.691" rx="7.44754" ry="11.8284" transform="rotate(14.4884 207.617 428.691)" fill="#FFE0D4"/>
<ellipse cx="660.488" cy="411.349" rx="7.44754" ry="11.8284" transform="rotate(42.2654 660.488 411.349)" fill="#FFE0D4"/>
<ellipse cx="568.989" cy="354.493" rx="9.95084" ry="15.8043" transform="rotate(18.857 568.989 354.493)" fill="#FFE0D4"/>
<ellipse cx="618.252" cy="345.315" rx="9.58101" ry="15.2169" transform="rotate(24.5629 618.252 345.315)" fill="#FFE0D4"/>
<ellipse cx="649.794" cy="361.086" rx="9.58101" ry="15.2169" transform="rotate(33.6006 649.794 361.086)" fill="#FFE0D4"/>
<ellipse cx="90.2083" cy="458.481" rx="7.44754" ry="11.8284" transform="rotate(-22.082 90.2083 458.481)" fill="#FFE0D4"/>
</g>
<defs>
<clipPath id="clip0_457_2762">
<rect width="727" height="665" fill="white" transform="translate(0 -21)"/>
</clipPath>
</defs>
</svg>
