<svg width="170" height="69" viewBox="0 0 170 69" fill="none" xmlns="http://www.w3.org/2000/svg">

<g clip-path="url(#clip0_763_2095)">

<path d="M6.39539 30.8569L7.03492 43.4192L7.67446 59.5712H27.8204H47.9652L48.6047 44.1426L49.031 30.8569" stroke="#D94236"/>
<path d="M36.2403 29.5713C36.2403 34.3052 32.4226 38.1427 27.7132 38.1427C23.0038 38.1427 19.186 34.3052 19.186 29.5713" stroke="#D94236" stroke-linecap="round"/>
<path d="M16.2015 17.5713C16.2015 14.3016 17.5025 11.3374 19.6124 9.17305C20.1372 8.63472 20.712 8.14589 21.3293 7.71415C21.7834 7.39653 22.2605 7.10982 22.7577 6.857C24.3748 6.03462 26.2033 5.57129 28.1395 5.57129C30.4923 5.57129 31.8334 5.67577 33.6822 6.857C33.8225 6.94666 34.8135 7.61883 34.9498 7.71415C35.567 8.14589 36.1419 8.63472 36.6667 9.17305C38.7766 11.3374 40.0775 14.3016 40.0775 17.5713" stroke="#D94236" stroke-linecap="round"/>
<path d="M17.6938 11.3573L16.8411 5.35728V0.428711L24.9418 5.78585" stroke="#D94236" stroke-linecap="round"/>
<path d="M38.3721 11.3573L39.2248 5.35728V0.428711L31.124 5.78585" stroke="#D94236" stroke-linecap="round"/>
<path d="M19.4593 29.1427C17.1046 33.2424 11.8895 34.647 7.81101 32.2801C3.73255 29.9132 2.33516 24.671 4.68986 20.5713" stroke="#D94236" stroke-linecap="round"/>
<path d="M41.783 18.2144C41.783 18.9791 42.0672 19.7144 41.783 20.5715C41.5698 21.2144 41.5698 21.9779 41.5698 22.5001C41.7711 23.2638 42.374 23.8006 42.8489 24.2144C43.0621 24.8954 43.9677 25.2858 44.6643 25.2858C45.3491 25.2858 46.2597 25.2858 46.8993 24.4286C47.4122 24.1994 47.8667 24.3141 48.1784 23.7858C48.6525 22.9814 48.3915 21.4324 48.3915 19.9286" stroke="#D94236" stroke-linecap="round"/>
<path d="M14.3547 18C14.3547 18.7647 14.0704 19.5 14.3547 20.3571C14.5678 21 14.5678 21.7635 14.5678 22.2857C14.3665 23.0495 13.7636 23.5863 13.2888 24C13.0756 24.681 12.17 25.0714 11.4735 25.0714C10.7887 25.0714 9.87791 25.0714 9.23837 24.2143C8.7253 23.985 8.27084 24.0998 7.9593 23.5714C7.48498 22.767 7.88759 21.4323 7.88759 19.9286" stroke="#D94236" stroke-linecap="round"/>
<path d="M43.062 24.4285L43.9147 22.2856" stroke="#D94236" stroke-linecap="round"/>
<path d="M13.0756 24.2141L12.2229 22.0713" stroke="#D94236" stroke-linecap="round"/>
<path d="M46.2596 22.5L46.8992 24.4286" stroke="#D94236" stroke-linecap="round"/>
<path d="M9.87794 22.2856L9.2384 24.2142" stroke="#D94236" stroke-linecap="round"/>
<path d="M35.814 29.1427C38.1686 33.2424 43.3839 34.647 47.462 32.2801C51.5406 29.9132 52.9382 24.671 50.5834 20.5713" stroke="#D94236" stroke-linecap="round"/>
<path d="M4.68994 20.5713C9.51852 19.5671 11.7368 18.1995 16.6279 17.5712C21.424 16.9552 24.3704 17.129 29.2054 17.1427C33.791 17.1557 36.6242 17.2183 41.1434 17.9998C44.8851 18.6469 46.9726 19.2192 50.5233 20.5712" stroke="#D94236" stroke-linecap="round"/>
<path d="M27.7131 41.1431V54.8574" stroke="#D94236" stroke-linecap="round"/>
<path d="M20.8915 40.7144L22.1705 55.0715" stroke="#D94236" stroke-linecap="round"/>
<path d="M12.7906 40.2856L15.3488 54.8571" stroke="#D94236" stroke-linecap="round"/>
<path d="M34.5349 40.7144L33.2559 55.0715" stroke="#D94236" stroke-linecap="round"/>
<path d="M42.6357 40.2856L40.0775 54.8571" stroke="#D94236" stroke-linecap="round"/>
<path d="M25.7946 16.9285C25.7946 16.9285 25.3476 16.445 25.3682 16.0713C25.4015 15.4688 26.0613 15.3455 26.6473 15.2142C27.2219 15.0855 28.1396 15.4285 28.1396 15.4285C28.1396 15.4285 29.1868 15.0819 29.845 15.2142C30.5032 15.3465 31.3175 15.397 31.3372 16.0713C31.3482 16.4454 30.9109 16.9285 30.9109 16.9285" stroke="#D94236" stroke-linecap="round"/>
<path d="M21.1046 15.6427L5.5426 14.5713" stroke="#D94236" stroke-linecap="round"/>
<path d="M19.3993 16.5L0.426392 18" stroke="#D94236" stroke-linecap="round"/>
<path d="M34.748 15.6431L49.2442 14.1431" stroke="#D94236" stroke-linecap="round"/>
<path d="M35.6008 16.5L53.0815 18" stroke="#D94236" stroke-linecap="round"/>
<path d="M32.6163 12.2138C32.035 12.5511 31.7635 13.7138 31.7635 13.7138C31.7635 13.7138 32.4518 14.4642 33.0426 14.5709C33.541 14.661 33.8545 14.5531 34.3217 14.3566C34.9215 14.1044 35.6008 13.2852 35.6008 13.2852C35.6008 13.2852 34.9321 12.4389 34.3217 12.2138C33.6964 11.9832 33.193 11.8791 32.6163 12.2138Z" stroke="#D94236" stroke-linecap="round"/>
<path d="M24.3024 12.2138C24.8837 12.5511 25.1551 13.7138 25.1551 13.7138C25.1551 13.7138 24.4669 14.4642 23.876 14.5709C23.3776 14.661 23.0641 14.5531 22.5969 14.3566C21.9971 14.1044 21.3179 13.2852 21.3179 13.2852C21.3179 13.2852 21.9865 12.4389 22.5969 12.2138C23.2222 11.9832 23.7256 11.8791 24.3024 12.2138Z" stroke="#D94236" stroke-linecap="round"/>
</g>
<path d="M67.25 16L63.25 10.6591H61.8182V16H60.4091V4.36364H61.8182V9.40909H62.4318L67.0909 4.36364H68.7727L64.0682 9.47727L68.9318 16H67.25ZM73.4759 16.1818C72.688 16.1818 71.9967 15.9943 71.402 15.6193C70.8111 15.2443 70.349 14.7197 70.0156 14.0455C69.6861 13.3712 69.5213 12.5833 69.5213 11.6818C69.5213 10.7727 69.6861 9.97917 70.0156 9.30114C70.349 8.62311 70.8111 8.09659 71.402 7.72159C71.9967 7.34659 72.688 7.15909 73.4759 7.15909C74.2637 7.15909 74.9531 7.34659 75.544 7.72159C76.1387 8.09659 76.6009 8.62311 76.9304 9.30114C77.2637 9.97917 77.4304 10.7727 77.4304 11.6818C77.4304 12.5833 77.2637 13.3712 76.9304 14.0455C76.6009 14.7197 76.1387 15.2443 75.544 15.6193C74.9531 15.9943 74.2637 16.1818 73.4759 16.1818ZM73.4759 14.9773C74.0743 14.9773 74.5668 14.8239 74.9531 14.517C75.3395 14.2102 75.6255 13.8068 75.8111 13.3068C75.9967 12.8068 76.0895 12.2652 76.0895 11.6818C76.0895 11.0985 75.9967 10.5549 75.8111 10.0511C75.6255 9.54735 75.3395 9.14015 74.9531 8.82955C74.5668 8.51894 74.0743 8.36364 73.4759 8.36364C72.8774 8.36364 72.3849 8.51894 71.9986 8.82955C71.6122 9.14015 71.3262 9.54735 71.1406 10.0511C70.955 10.5549 70.8622 11.0985 70.8622 11.6818C70.8622 12.2652 70.955 12.8068 71.1406 13.3068C71.3262 13.8068 71.6122 14.2102 71.9986 14.517C72.3849 14.8239 72.8774 14.9773 73.4759 14.9773ZM85.3182 11.0227V12.2727H80.5V11.0227H85.3182ZM80.8182 7.27273V16H79.4773V7.27273H80.8182ZM86.3409 7.27273V16H85V7.27273H86.3409ZM87.858 18.5V14.75H88.5852C88.7633 14.5644 88.9167 14.3636 89.0455 14.1477C89.1742 13.9318 89.286 13.6761 89.3807 13.3807C89.4792 13.0814 89.5625 12.7178 89.6307 12.2898C89.6989 11.858 89.7595 11.3371 89.8125 10.7273L90.108 7.27273H95.6534V14.75H96.9943V18.5H95.6534V16H89.1989V18.5H87.858ZM90.108 14.75H94.3125V8.52273H91.358L91.1307 10.7273C91.036 11.6402 90.9186 12.4375 90.7784 13.1193C90.6383 13.8011 90.4148 14.3447 90.108 14.75ZM100.115 14.0227L104.32 7.27273H105.865V16H104.524V9.25L100.342 16H98.7741V7.27273H100.115V14.0227ZM107.134 8.52273V7.27273H114.224V8.52273H111.361V16H110.02V8.52273H107.134ZM119.386 16.1818C118.545 16.1818 117.82 15.9962 117.21 15.625C116.604 15.25 116.136 14.7273 115.807 14.0568C115.481 13.3826 115.318 12.5985 115.318 11.7045C115.318 10.8106 115.481 10.0227 115.807 9.34091C116.136 8.6553 116.595 8.12121 117.182 7.73864C117.773 7.35227 118.462 7.15909 119.25 7.15909C119.705 7.15909 120.153 7.23485 120.597 7.38636C121.04 7.53788 121.443 7.78409 121.807 8.125C122.17 8.46212 122.46 8.90909 122.676 9.46591C122.892 10.0227 123 10.7083 123 11.5227V12.0909H116.273V10.9318H121.636C121.636 10.4394 121.538 10 121.341 9.61364C121.148 9.22727 120.871 8.92235 120.511 8.69886C120.155 8.47538 119.735 8.36364 119.25 8.36364C118.716 8.36364 118.254 8.49621 117.864 8.76136C117.477 9.02273 117.18 9.36364 116.972 9.78409C116.763 10.2045 116.659 10.6553 116.659 11.1364V11.9091C116.659 12.5682 116.773 13.1269 117 13.5852C117.231 14.0398 117.551 14.3864 117.96 14.625C118.369 14.8598 118.845 14.9773 119.386 14.9773C119.739 14.9773 120.057 14.928 120.341 14.8295C120.629 14.7273 120.877 14.5758 121.085 14.375C121.294 14.1705 121.455 13.9167 121.568 13.6136L122.864 13.9773C122.727 14.4167 122.498 14.803 122.176 15.1364C121.854 15.4659 121.456 15.7235 120.983 15.9091C120.509 16.0909 119.977 16.1818 119.386 16.1818ZM125.04 19.2727V7.27273H126.335V8.65909H126.494C126.593 8.50758 126.729 8.31439 126.903 8.07955C127.081 7.84091 127.335 7.62879 127.665 7.44318C127.998 7.25379 128.449 7.15909 129.017 7.15909C129.752 7.15909 130.4 7.3428 130.96 7.71023C131.521 8.07765 131.958 8.59848 132.273 9.27273C132.587 9.94697 132.744 10.7424 132.744 11.6591C132.744 12.5833 132.587 13.3845 132.273 14.0625C131.958 14.7367 131.523 15.2595 130.966 15.6307C130.409 15.9981 129.767 16.1818 129.04 16.1818C128.479 16.1818 128.03 16.089 127.693 15.9034C127.356 15.714 127.097 15.5 126.915 15.2614C126.733 15.0189 126.593 14.8182 126.494 14.6591H126.381V19.2727H125.04ZM126.358 11.6364C126.358 12.2955 126.455 12.8769 126.648 13.3807C126.841 13.8807 127.123 14.2727 127.494 14.5568C127.866 14.8371 128.32 14.9773 128.858 14.9773C129.419 14.9773 129.886 14.8295 130.261 14.5341C130.64 14.2348 130.924 13.8333 131.114 13.3295C131.307 12.822 131.403 12.2576 131.403 11.6364C131.403 11.0227 131.309 10.4697 131.119 9.97727C130.934 9.48106 130.652 9.08902 130.273 8.80114C129.898 8.50947 129.426 8.36364 128.858 8.36364C128.313 8.36364 127.854 8.50189 127.483 8.77841C127.112 9.05114 126.831 9.43371 126.642 9.92614C126.453 10.4148 126.358 10.9848 126.358 11.6364ZM138.335 16.1818C137.517 16.1818 136.813 15.9886 136.222 15.6023C135.631 15.2159 135.176 14.6837 134.858 14.0057C134.54 13.3277 134.381 12.553 134.381 11.6818C134.381 10.7955 134.544 10.0133 134.869 9.33523C135.199 8.65341 135.657 8.12121 136.244 7.73864C136.835 7.35227 137.525 7.15909 138.312 7.15909C138.926 7.15909 139.479 7.27273 139.972 7.5C140.464 7.72727 140.867 8.04545 141.182 8.45455C141.496 8.86364 141.691 9.34091 141.767 9.88636H140.426C140.324 9.48864 140.097 9.13636 139.744 8.82955C139.396 8.51894 138.926 8.36364 138.335 8.36364C137.813 8.36364 137.354 8.5 136.96 8.77273C136.57 9.04167 136.265 9.42235 136.045 9.91477C135.83 10.4034 135.722 10.9773 135.722 11.6364C135.722 12.3106 135.828 12.8977 136.04 13.3977C136.256 13.8977 136.559 14.286 136.949 14.5625C137.343 14.839 137.805 14.9773 138.335 14.9773C138.684 14.9773 139 14.9167 139.284 14.7955C139.568 14.6742 139.809 14.5 140.006 14.2727C140.203 14.0455 140.343 13.7727 140.426 13.4545H141.767C141.691 13.9697 141.504 14.4337 141.205 14.8466C140.909 15.2557 140.517 15.5814 140.028 15.8239C139.544 16.0625 138.979 16.1818 138.335 16.1818ZM143.727 16V7.27273H145.068V11.0682H145.955L149.091 7.27273H150.818L147.295 11.4773L150.864 16H149.136L146.273 12.3182H145.068V16H143.727ZM154.889 16.2045C154.336 16.2045 153.834 16.1004 153.384 15.892C152.933 15.6799 152.575 15.375 152.31 14.9773C152.045 14.5758 151.912 14.0909 151.912 13.5227C151.912 13.0227 152.01 12.6174 152.207 12.3068C152.404 11.9924 152.668 11.7462 152.997 11.5682C153.327 11.3902 153.69 11.2576 154.088 11.1705C154.49 11.0795 154.893 11.0076 155.298 10.9545C155.829 10.8864 156.259 10.8352 156.588 10.8011C156.921 10.7633 157.164 10.7008 157.315 10.6136C157.471 10.5265 157.548 10.375 157.548 10.1591V10.1136C157.548 9.55303 157.395 9.11742 157.088 8.80682C156.785 8.49621 156.325 8.34091 155.707 8.34091C155.067 8.34091 154.565 8.48106 154.202 8.76136C153.838 9.04167 153.582 9.34091 153.435 9.65909L152.162 9.20455C152.389 8.67424 152.692 8.26136 153.071 7.96591C153.454 7.66667 153.87 7.45833 154.321 7.34091C154.776 7.2197 155.223 7.15909 155.662 7.15909C155.942 7.15909 156.264 7.19318 156.628 7.26136C156.995 7.32576 157.349 7.46023 157.69 7.66477C158.035 7.86932 158.321 8.17803 158.548 8.59091C158.776 9.00379 158.889 9.55682 158.889 10.25V16H157.548V14.8182H157.48C157.389 15.0076 157.238 15.2102 157.026 15.4261C156.813 15.642 156.531 15.8258 156.179 15.9773C155.827 16.1288 155.397 16.2045 154.889 16.2045ZM155.094 15C155.624 15 156.071 14.8958 156.435 14.6875C156.802 14.4792 157.079 14.2102 157.264 13.8807C157.454 13.5511 157.548 13.2045 157.548 12.8409V11.6136C157.491 11.6818 157.366 11.7443 157.173 11.8011C156.984 11.8542 156.764 11.9015 156.514 11.9432C156.268 11.9811 156.027 12.0152 155.793 12.0455C155.562 12.072 155.374 12.0947 155.23 12.1136C154.882 12.1591 154.556 12.233 154.253 12.3352C153.954 12.4337 153.711 12.5833 153.526 12.7841C153.344 12.9811 153.253 13.25 153.253 13.5909C153.253 14.0568 153.425 14.4091 153.77 14.6477C154.118 14.8826 154.56 15 155.094 15ZM166.587 16V8.5H164.268C163.746 8.5 163.335 8.62121 163.036 8.86364C162.736 9.10606 162.587 9.43939 162.587 9.86364C162.587 10.2803 162.721 10.608 162.99 10.8466C163.263 11.0852 163.636 11.2045 164.109 11.2045H166.928V12.4545H164.109C163.518 12.4545 163.009 12.3504 162.581 12.142C162.153 11.9337 161.823 11.6364 161.592 11.25C161.361 10.8598 161.246 10.3977 161.246 9.86364C161.246 9.32576 161.367 8.86364 161.609 8.47727C161.852 8.09091 162.198 7.79356 162.649 7.58523C163.104 7.37689 163.643 7.27273 164.268 7.27273H167.859V16H166.587ZM160.768 16L163.246 11.6591H164.7L162.223 16H160.768Z" fill="#D94236"/>
<path d="M77.1151 60L68.7031 48.8395H66.8111V60H61.2756V33.8182H66.8111V44.2756H67.9233L76.6165 33.8182H83.5071L73.2926 45.9631L83.9801 60H77.1151ZM90.3638 60V33.8182H108.006V38.3821H95.8994V44.6207H107.098V49.1847H95.8994V55.4361H108.057V60H90.3638ZM131.846 60L123.434 48.8395H121.542V60H116.007V33.8182H121.542V44.2756H122.655L131.348 33.8182H138.238L128.024 45.9631L138.711 60H131.846ZM166.719 42.9844H161.12C161.018 42.2599 160.809 41.6165 160.494 41.054C160.178 40.483 159.773 39.9972 159.279 39.5966C158.785 39.196 158.214 38.8892 157.566 38.6761C156.927 38.4631 156.232 38.3565 155.482 38.3565C154.127 38.3565 152.947 38.6932 151.941 39.3665C150.935 40.0312 150.155 41.0028 149.601 42.2812C149.048 43.5511 148.771 45.0937 148.771 46.9091C148.771 48.7756 149.048 50.3437 149.601 51.6136C150.164 52.8835 150.948 53.8423 151.954 54.4901C152.959 55.1378 154.123 55.4616 155.444 55.4616C156.185 55.4616 156.871 55.3636 157.502 55.1676C158.141 54.9716 158.708 54.6861 159.202 54.3111C159.697 53.9276 160.106 53.4631 160.43 52.9176C160.762 52.3722 160.992 51.75 161.12 51.0511L166.719 51.0767C166.575 52.2784 166.212 53.4375 165.633 54.554C165.062 55.6619 164.29 56.6548 163.319 57.5327C162.356 58.402 161.205 59.0923 159.867 59.6037C158.538 60.1065 157.033 60.358 155.354 60.358C153.019 60.358 150.931 59.8295 149.09 58.7727C147.258 57.7159 145.809 56.1861 144.744 54.1832C143.687 52.1804 143.158 49.7557 143.158 46.9091C143.158 44.054 143.695 41.625 144.769 39.6222C145.843 37.6193 147.3 36.0937 149.141 35.0455C150.982 33.9886 153.053 33.4602 155.354 33.4602C156.871 33.4602 158.278 33.6733 159.573 34.0994C160.877 34.5256 162.032 35.1477 163.038 35.9659C164.043 36.7756 164.861 37.7685 165.492 38.9446C166.131 40.1207 166.54 41.4673 166.719 42.9844Z" fill="#D94236"/>
<defs>

<clipPath id="clip0_763_2095">

<rect width="55" height="60" fill="white"/>
</clipPath>
</defs>
</svg>
