<svg width="121" height="132" viewBox="0 0 121 132" fill="none" xmlns="http://www.w3.org/2000/svg">
<path d="M14.1619 67.7495L15.5721 95.3072L16.9823 130.739H61.4049H105.825L107.235 96.8937L108.175 67.7495" stroke="#DD7870"/>
<path d="M79.9714 64.9292C79.9714 75.3137 71.5531 83.7319 61.1687 83.7319C50.7842 83.7319 42.366 75.3137 42.366 64.9292" stroke="#DD7870" stroke-linecap="round"/>
<path d="M35.785 38.6055C35.785 31.433 38.6536 24.9305 43.3061 20.1826C44.4633 19.0018 45.7308 17.9294 47.0919 16.9823C48.0933 16.2856 49.1454 15.6566 50.2415 15.1021C53.8074 13.2981 57.8394 12.2817 62.1088 12.2817C67.2969 12.2817 70.2541 12.5109 74.3306 15.1021C74.64 15.2987 76.8252 16.7733 77.1257 16.9823C78.4869 17.9294 79.7544 19.0018 80.9115 20.1826C85.564 24.9305 88.4326 31.433 88.4326 38.6055" stroke="#DD7870" stroke-linecap="round"/>
<path d="M39.0756 24.9735L37.1953 11.8116V1L55.0579 12.7517" stroke="#DD7870" stroke-linecap="round"/>
<path d="M84.672 24.9735L86.5522 11.8116V1L68.6897 12.7517" stroke="#DD7870" stroke-linecap="round"/>
<path d="M42.9686 63.9892C37.7764 72.9824 26.2768 76.0637 17.2836 70.8715C8.29044 65.6793 5.20914 54.1797 10.4014 45.1865" stroke="#DD7870" stroke-linecap="round"/>
<path d="M92.1933 40.0156C92.1933 41.6931 92.8201 43.3061 92.1933 45.1864C91.7233 46.5966 91.7233 48.2714 91.7233 49.417C92.1671 51.0924 93.4966 52.2699 94.5437 53.1775C95.0137 54.6714 97.0107 55.5279 98.5465 55.5279C100.056 55.5279 102.065 55.5279 103.475 53.6476C104.606 53.1447 105.608 53.3964 106.295 52.2374C107.341 50.4728 106.765 47.0749 106.765 43.7762" stroke="#DD7870" stroke-linecap="round"/>
<path d="M31.7126 39.5457C31.7126 41.2231 31.0858 42.8361 31.7126 44.7164C32.1826 46.1266 32.1826 47.8014 32.1826 48.947C31.7388 50.6225 30.4093 51.7999 29.3622 52.7076C28.8922 54.2014 26.8952 55.0579 25.3594 55.0579C23.8495 55.0579 21.8411 55.0579 20.4309 53.1776C19.2996 52.6747 18.2975 52.9265 17.6105 51.7674C16.5647 50.0028 17.4524 47.075 17.4524 43.7763" stroke="#DD7870" stroke-linecap="round"/>
<path d="M95.0137 53.6477L96.8939 48.947" stroke="#DD7870" stroke-linecap="round"/>
<path d="M28.8921 53.1775L27.0118 48.4768" stroke="#DD7870" stroke-linecap="round"/>
<path d="M102.065 49.417L103.475 53.6476" stroke="#DD7870" stroke-linecap="round"/>
<path d="M21.8411 48.947L20.4309 53.1776" stroke="#DD7870" stroke-linecap="round"/>
<path d="M79.0314 63.9892C84.2236 72.9824 95.7232 76.0637 104.716 70.8715C113.71 65.6793 116.791 54.1797 111.599 45.1865" stroke="#DD7870" stroke-linecap="round"/>
<path d="M10.4014 45.1864C21.0486 42.9835 25.9401 39.9836 36.7252 38.6054C47.3006 37.254 53.7978 37.6353 64.4592 37.6653C74.5707 37.6938 80.8179 37.8311 90.783 39.5455C99.034 40.965 103.637 42.2203 111.466 45.1864" stroke="#DD7870" stroke-linecap="round"/>
<path d="M61.1687 90.313V120.397" stroke="#DD7870" stroke-linecap="round"/>
<path d="M46.1265 89.3728L48.9469 120.867" stroke="#DD7870" stroke-linecap="round"/>
<path d="M28.2639 88.4326L33.9047 120.397" stroke="#DD7870" stroke-linecap="round"/>
<path d="M76.2109 89.3728L73.3905 120.867" stroke="#DD7870" stroke-linecap="round"/>
<path d="M94.0735 88.4326L88.4327 120.397" stroke="#DD7870" stroke-linecap="round"/>
<path d="M56.938 37.1953C56.938 37.1953 55.9523 36.1347 55.9979 35.315C56.0713 33.9933 57.5262 33.7227 58.8183 33.4347C60.0852 33.1523 62.1088 33.9048 62.1088 33.9048C62.1088 33.9048 64.418 33.1445 65.8693 33.4347C67.3206 33.725 69.1163 33.8356 69.1598 35.315C69.1839 36.1356 68.2196 37.1953 68.2196 37.1953" stroke="#DD7870" stroke-linecap="round"/>
<path d="M46.5967 34.3748L12.2817 32.0244" stroke="#DD7870" stroke-linecap="round"/>
<path d="M42.8361 36.2551L1 39.5456" stroke="#DD7870" stroke-linecap="round"/>
<path d="M76.6809 34.3749L108.646 31.0845" stroke="#DD7870" stroke-linecap="round"/>
<path d="M78.5613 36.2551L117.107 39.5456" stroke="#DD7870" stroke-linecap="round"/>
<path d="M71.9804 26.8527C70.6986 27.5927 70.1001 30.1432 70.1001 30.1432C70.1001 30.1432 71.6176 31.7893 72.9205 32.0235C74.0195 32.2211 74.7108 31.9844 75.7409 31.5534C77.0636 31.0001 78.5613 29.2031 78.5613 29.2031C78.5613 29.2031 77.0869 27.3467 75.7409 26.8527C74.3622 26.3468 73.2522 26.1185 71.9804 26.8527Z" stroke="#DD7870" stroke-linecap="round"/>
<path d="M53.6476 26.8527C54.9293 27.5927 55.5278 30.1432 55.5278 30.1432C55.5278 30.1432 54.0103 31.7893 52.7074 32.0235C51.6084 32.2211 50.9171 31.9844 49.887 31.5534C48.5644 31.0001 47.0666 29.2031 47.0666 29.2031C47.0666 29.2031 48.541 27.3467 49.887 26.8527C51.2657 26.3468 52.3757 26.1185 53.6476 26.8527Z" stroke="#DD7870" stroke-linecap="round"/>
</svg>
