<svg width="53" height="44" viewBox="0 0 53 44" xmlns="http://www.w3.org/2000/svg">
<path d="M20.529 2.46714C24.0291 4.1983 26.8232 9.70759 26.8232 9.70759C26.8232 9.70759 29.39 4.21105 32.7946 2.46714C35.2111 1.2294 36.9544 0.913099 39.7344 1.01905C42.0871 1.10872 43.6551 1.20591 45.5444 2.46714C47.4526 3.74095 48.7655 4.90083 50.0633 6.95622C51.873 9.82229 52 11.4453 52 15.2103C52 18.6946 51.2846 20.3343 49.5791 23.4644C48.0399 26.2895 46.0297 28.2872 43.6077 30.5601C41.1038 32.91 39.9763 33.5916 37.1522 35.6284C33.5758 38.2077 26.8232 42 26.8232 42C26.8232 42 19.6873 38.5501 15.6874 35.6284C13.0597 33.7091 9.39317 30.2705 9.39317 30.2705C9.39317 30.2705 5.47001 26.7432 4.06732 23.8989C2.516 20.7532 0.956605 18.65 1.00092 15.2103C1.04237 11.9936 0.924244 9.78751 2.77621 6.95622C4.17481 4.81803 5.73382 3.73135 7.77927 2.46714C9.86902 1.17554 11.536 1.03276 14.0735 1.01905C16.6721 1.005 18.2533 1.34151 20.529 2.46714Z" stroke="currentColor" stroke-width="2" stroke-linecap="round"/>
</svg>
