<svg width="26" height="24" viewBox="0 0 26 24" fill="none" xmlns="http://www.w3.org/2000/svg">
<path d="M4.33369 16.7154C3.92958 17.069 3.92097 17.9536 4.12733 18.6759C4.33368 19.3982 4.94256 20.3166 5.46869 20.8427C6.08777 21.4618 7.73868 21.9777 7.73868 21.9777C9.27038 22.3075 10.7309 21.565 12.485 21.6682C14.2391 21.7713 15.2326 23.2195 18.0568 21.6682C19.2927 20.9893 20.0615 20.2439 20.5734 18.9392C21.0107 17.8244 21.4251 17.3201 20.8563 16.268C20.2713 15.1861 18.3919 15.6762 17.4108 14.9273C16.9602 14.5833 16.6613 14.4089 16.2391 13.9604C15.8168 13.5119 15.2271 12.46 14.6435 11.7211C14.0599 10.9822 12.4631 10.9018 11.5708 11.0323C10.6785 11.1629 9.40721 12.7706 8.7375 13.6055C8.0939 14.4079 8.37827 14.4748 7.53232 15.0645C6.88511 15.5157 6.12905 15.4773 5.46869 15.89C4.64323 16.4059 5.15914 15.9932 4.33369 16.7154Z" fill="#FFD363"/>
<ellipse cx="2.62815" cy="3.84595" rx="2.62815" ry="3.84595" transform="matrix(-0.968982 -0.24713 -0.24713 0.968982 25.5669 8.10901)" fill="#FFD363"/>
<ellipse cx="3.37349" cy="11.7737" rx="2.5006" ry="3.84595" transform="rotate(-14.3077 3.37349 11.7737)" fill="#FFD363"/>
<ellipse cx="3.16513" cy="4.74635" rx="3.16513" ry="4.74635" transform="matrix(-0.998434 -0.0559489 -0.0559489 0.998434 19.4397 0.354126)" fill="#FFD363"/>
<ellipse cx="8.37848" cy="5.3288" rx="3.16513" ry="4.74635" transform="rotate(-3.20731 8.37848 5.3288)" fill="#FFD363"/>
</svg>
