<svg width="687" height="425" viewBox="0 0 687 425" preserveAspectRatio="none" fill="none" xmlns="http://www.w3.org/2000/svg">
<path d="M457.018 369.5L513.518 424L488.518 352.5L476.48 297.713C476.48 297.713 556.518 294.815 597.018 275.5C629.518 260 640.018 257 665.018 219C691.946 178.069 691.539 106.661 665.018 84.5C592.018 23.5 576.018 31 497.518 18C404.954 2.67098 290.018 1 290.018 1C290.018 1 195.427 7.36561 142.518 24.5001C90.1625 41.4552 49.9803 55.0002 21.9805 97.5001C-6.01934 140 -5.96765 180.066 21.9805 232C34.0374 254.404 78.5176 275.287 121.518 288.5C164.518 301.713 231.018 306.713 231.018 306.713H392.018L457.018 369.5Z" fill="#FFF3F3" stroke="#FFF3F3" stroke-width="2" stroke-linecap="square"/>
</svg>
