<svg width="33" height="29" viewBox="0 0 33 29" fill="none" xmlns="http://www.w3.org/2000/svg">
<path d="M12.6364 1.03773C14.9012 2.26221 16.7092 6.15903 16.7092 6.15903C16.7092 6.15903 18.37 2.27123 20.573 1.03773C22.1366 0.162256 23.2646 -0.0614666 25.0634 0.0134733C26.5858 0.0768968 27.6003 0.145643 28.8229 1.03773C30.0576 1.93872 30.9071 2.75912 31.7469 4.21293C32.9178 6.24015 33 7.38814 33 10.0512C33 12.5157 32.5371 13.6754 31.4336 15.8895C30.4376 17.8877 29.1368 19.3007 27.5697 20.9084C25.9495 22.5705 25.22 23.0526 23.3926 24.4933C21.0785 26.3176 16.7092 29 16.7092 29C16.7092 29 12.0918 26.5598 9.50358 24.4933C7.80334 23.1357 5.43087 20.7035 5.43087 20.7035C5.43087 20.7035 2.89236 18.2086 1.98473 16.1968C0.98094 13.9718 -0.0280792 12.4841 0.000597123 10.0512C0.0274151 7.77594 -0.0490189 6.21556 1.14931 4.21293C2.05429 2.70056 3.06306 1.93193 4.38659 1.03773C5.73878 0.124164 6.81738 0.0231747 8.4593 0.0134733C10.1407 0.00353835 11.1639 0.241554 12.6364 1.03773Z" fill="#D94236"/>
</svg>
