<svg width="180" height="166" viewBox="0 0 180 166" fill="none" xmlns="http://www.w3.org/2000/svg">
<path d="M10 47H170C174.971 47 179 51.0294 179 56V165H1V56C1 51.0294 5.02944 47 10 47Z" stroke="#FFA181" stroke-width="2"/>
<path d="M8 152L126 152" stroke="#FFA181" stroke-width="2" stroke-linecap="square"/>
<path d="M155 152H167" stroke="#FFA181" stroke-width="2" stroke-linecap="square"/>
<path d="M8 134H25" stroke="#FFA181" stroke-width="2" stroke-linecap="square"/>
<path d="M79 106H179" stroke="#FFA181" stroke-width="2" stroke-linecap="square"/>
<path d="M57 134.331L168.5 134" stroke="#FFA181" stroke-width="2" stroke-linecap="square"/>
<path d="M118 74C118 84.4934 106.583 95.5 92.5 95.5C78.4167 95.5 67 87.4934 67 77" stroke="#FFA181" stroke-width="2"/>
<path d="M38 76C38 86.4934 29.7173 93 19.5 93C7 93 1 84.4934 1 74" stroke="#FFA181" stroke-width="2"/>
<path d="M152 79.5C148.5 87.5 144.389 91 135 91C125.611 91 118 82.3888 118 73" stroke="#FFA181" stroke-width="2"/>
<path d="M179 79C179 86.1797 172.956 92 165.5 92C158.044 92 152 86.1797 152 79" stroke="#FFA181" stroke-width="2"/>
<path d="M67 77C67 85.2843 60.5081 92 52.5 92C44.4919 92 38 85.2843 38 77" stroke="#FFA181" stroke-width="2"/>
<path d="M114.727 41.2118L114.943 41.5578L115.34 41.654C119.73 42.719 122.455 44.0052 123.898 45.8421C125.288 47.6116 125.66 50.1332 124.678 54.1802C122.804 61.9058 114.637 66.6598 106.319 64.6908C102.02 62.7257 98.8944 60.3274 96.9504 57.4263C95.0156 54.5391 94.1926 51.0671 94.6506 46.8305C95.6165 42.9445 98.9069 38.5551 102.828 36.6597C104.771 35.7208 106.81 35.4195 108.787 36.0202C110.766 36.6212 112.828 38.1698 114.727 41.2118Z" fill="#FFA181" stroke="#FFA181" stroke-width="2"/>
<path d="M115.3 40.8505L118.7 35.5602C118.7 35.5602 120.604 32.6243 122.329 31.2661C123.669 30.2111 124.557 29.7673 126.14 29.1329C127.106 28.7456 127.412 28.7359 127.412 28.7359" stroke="#FFA181" stroke-width="2" stroke-linecap="square"/>
<path d="M68.0751 26.392L67.859 26.7381L67.4626 26.8342C61.3752 28.311 57.4879 30.1152 55.4041 32.7679C53.3733 35.3533 52.8815 38.9886 54.2522 44.6385C56.9041 55.5699 68.4531 62.2554 80.1656 59.463C86.1752 56.7214 90.5805 53.3572 93.3291 49.2554C96.0685 45.1675 97.2212 40.2597 96.5727 34.3064C95.2179 28.8175 90.5871 22.6292 85.0402 19.948C82.2851 18.6163 79.3618 18.1754 76.5124 19.041C73.6617 19.907 70.7393 22.125 68.0751 26.392Z" fill="#FFA181" stroke="#FFA181" stroke-width="2"/>
<path d="M67.6083 26.0952L62.9013 18.7717C62.9013 18.7717 60.2657 14.7076 57.8777 12.8274C56.0228 11.367 54.7943 10.7526 52.603 9.87437C51.2653 9.33831 50.8417 9.32485 50.8417 9.32485" stroke="#FFA181" stroke-width="2" stroke-linecap="square"/>
</svg>
