<svg width="947" height="710" viewBox="0 0 947 710" fill="none" preserveAspectRatio="none" xmlns="http://www.w3.org/2000/svg">
<path d="M590.813 549.504L673.313 709.004V531.004V439.004C673.313 439.004 752.676 409.808 807.312 386.004C851.155 366.902 862.437 355.967 902.231 313.45C932.53 281.078 960.843 206.938 935.812 171.004C870.005 76.5307 833.411 66.5686 726.246 37.395L724.812 37.0047C603.516 3.98243 412.5 1.50024 412.5 1.50024C412.5 1.50024 267.582 2.34653 181.812 37.0047C109.106 66.3841 65.7717 79.6239 28.0003 132C-9.77117 184.376 -10.9999 254 46.9736 325.774C90.0802 379.142 107.876 378.937 159.812 400.504C211.748 422.07 263.362 436.87 332.313 448.504C407.894 461.257 528.313 458.871 528.313 458.871L590.813 549.504Z" fill="white" stroke="#FFA181" stroke-width="2" stroke-linecap="square"/>
</svg>
